<svg id="Capa_1" enable-background="new 0 0 512 512" height="512" viewBox="0 0 512 512" width="512" xmlns="http://www.w3.org/2000/svg"><g id="XMLID_1286_"><path id="XMLID_1378_" d="m294.188 111.168c-20.62-21.243-21.038-56.406-.375-77.608 14.292-14.665 34.311-23.722 56.444-23.558 42.998.319 77.391 35.96 77.391 78.959v56.442c0 30.988-25.121 56.109-56.109 56.109z" fill="#ffd88e"/><path id="XMLID_1372_" d="m470.129 281.607-40.826-73.928c-12.658-22.921-36.773-37.151-62.956-37.151h-37.76c-31.321 0-56.712 25.391-56.712 56.711 0 17.646 9.169 33.14 22.995 42.01l-.08-.014c-38.766 8.21-67.856 42.628-67.856 83.84 0 36.782 23.178 68.142 55.721 80.298l-.241.615v68.012h162.362v-41.499c0-32.999-8.223-65.478-23.924-94.502l.394-4.615 38.828-30.407c15.014-11.759 19.274-32.676 10.055-49.37z" fill="#da73a7"/><path id="XMLID_1371_" d="m398.653 377.811-18.47 18.47c-8.181 8.181-21.445 8.181-29.625 0-8.181-8.181-8.181-21.445 0-29.625l18.47-18.47z" fill="#ffd0c6"/><path id="XMLID_1370_" d="m387.647 123.798-46.73-55.493-46.73 29.402v26.091c0 25.808 20.922 46.73 46.73 46.73 25.809-.001 46.73-20.922 46.73-46.73" fill="#ffd0c6"/><g id="XMLID_1364_"><path id="XMLID_1367_" d="m306.619 277.622c8.766 8.766 8.766 22.978 0 31.743-8.766 8.766-22.978 8.766-31.743 0l-19.79-19.79 11.953-11.953c10.93-10.929 28.651-10.929 39.58 0z" fill="#ffd0c6"/></g><g id="XMLID_1285_"><path id="XMLID_1362_" d="m93.251 289.671-46.622-46.622c-12.874-12.874-12.874-33.748 0-46.622 12.874-12.874 33.748-12.874 46.622 0 12.874-12.874 33.748-12.874 46.622 0 12.874 12.874 12.874 33.748 0 46.622z" fill="#ff7a7a"/></g><g id="XMLID_1288_"><path id="XMLID_1290_" d="m168.576 135-38.512-38.512c-10.635-10.635-10.635-27.877 0-38.512 10.635-10.635 27.877-10.635 38.512 0 10.635-10.635 27.877-10.635 38.512 0 10.635 10.635 10.635 27.877 0 38.512z" fill="#ff7a7a"/></g><g id="XMLID_1616_"><g id="XMLID_1617_"><path id="XMLID_1626_" d="m478.883 276.772-40.826-73.928c-3.689-6.681-8.24-12.709-13.461-17.989 8.469-11.341 13.051-25.044 13.051-39.453v-56.44c0-3.407-.195-6.846-.581-10.219-.627-5.487-5.576-9.426-11.071-8.801-5.487.627-9.427 5.583-8.8 11.07.3 2.623.452 5.297.452 7.949v56.441c0 9.854-3.078 19.231-8.765 27.048-8.033-4.882-16.896-8.387-26.226-10.283 9.3-10.108 14.991-23.585 14.991-38.371 0-2.357-.833-4.639-2.351-6.441l-46.73-55.493c-3.215-3.817-8.752-4.681-12.975-2.022l-44.336 27.896c-5.603-16.01-2.388-34.775 9.719-47.197 12.922-13.258 30.192-20.539 48.684-20.539.173 0 .349 0 .522.002 6.547.049 13.006 1.041 19.198 2.948 5.276 1.626 10.875-1.335 12.501-6.612 1.626-5.278-1.334-10.875-6.612-12.501-8.053-2.48-16.442-3.771-24.937-3.835-.226-.001-.451-.002-.677-.002-23.93 0-46.282 9.424-63.002 26.581-23.473 24.085-24.247 62.89-2.463 88.424v8.792c0 16.598 7.166 31.553 18.566 41.937-23.993 10.115-40.879 33.874-40.879 61.504 0 12.963 4.154 24.968 11.181 34.781-4.771 1.849-9.244 4.686-13.089 8.53l-11.796 11.796c-19.853 18.105-31.236 43.868-31.236 70.729 0 38.411 22.75 71.603 55.479 86.825v62.101c0 5.522 4.477 10 10 10s10-4.478 10-10v-55.38c6.521 1.408 13.285 2.157 20.221 2.157 5.523 0 10-4.478 10-10s-4.477-10-10-10c-41.741 0-75.7-33.959-75.7-75.7 0-18.128 6.574-35.612 18.254-49.255l12.615 12.615c6.326 6.325 14.634 9.487 22.943 9.487s16.617-3.162 22.943-9.487c7.949-7.949 10.899-19.029 8.859-29.307h18.368c5.523 0 10-4.478 10-10s-4.477-10-10-10h-19.151c-21.996 0-39.891-17.895-39.891-39.891 0-25.757 20.955-46.712 46.711-46.712h37.76c22.538 0 43.308 12.256 54.203 31.985l40.826 73.928c6.874 12.447 3.751 27.84-7.419 36.625l-54.414 41.493-16.41-16.41 46.224-46.72c3.555-3.594 3.87-9.275.732-13.239l-33.553-42.396c-3.428-4.331-9.717-5.062-14.047-1.636-4.331 3.428-5.062 9.717-1.635 14.048l28.058 35.451-65.424 65.928c-12.066 12.067-12.066 31.701 0 43.768 6.034 6.033 13.958 9.05 21.884 9.05s15.851-3.017 21.884-9.05l17.997-17.997 10.269-7.83c12.606 25.755 19.256 54.276 19.256 82.976v41.499c0 5.522 4.477 10 10 10s10-4.478 10-10v-41.498c0-33.065-7.979-65.916-23.074-95.315l34.435-26.258c.034-.026.068-.053.102-.079 18.981-14.865 24.298-40.972 12.643-62.078zm-179.335 25.522c-4.853 4.854-12.748 4.854-17.601 0l-12.719-12.719 4.882-4.882c3.397-3.397 7.914-5.269 12.719-5.269s9.322 1.871 12.719 5.269c4.853 4.853 4.853 12.748 0 17.601zm4.64-199.065 34.688-21.825 38.61 45.852c-1.748 18.638-17.481 33.271-36.568 33.271-20.253 0-36.729-16.477-36.729-36.729v-20.569zm53.441 285.981c-4.269-4.269-4.269-11.215 0-15.483l11.398-11.398 15.483 15.483-11.398 11.398c-4.268 4.269-11.214 4.269-15.483 0z"/><path id="XMLID_1623_" d="m93.251 183.639c-16.638-10.75-39.133-8.843-53.693 5.717-8.116 8.115-12.585 18.905-12.585 30.382s4.469 22.267 12.584 30.383l46.622 46.622c1.953 1.952 4.512 2.929 7.071 2.929s5.119-.977 7.071-2.929l46.622-46.622c16.752-16.754 16.752-44.013 0-60.765-14.561-14.561-37.057-16.466-53.692-5.717zm39.551 52.339-39.551 39.551-39.551-39.551c-4.338-4.338-6.727-10.105-6.727-16.24s2.389-11.901 6.727-16.239c4.478-4.478 10.359-6.716 16.24-6.716s11.763 2.238 16.24 6.716c3.905 3.904 10.237 3.904 14.142 0 8.954-8.955 23.525-8.955 32.479 0 8.955 8.953 8.955 23.523.001 32.479z"/><path id="XMLID_1620_" d="m214.16 50.905c-12.341-12.339-31.26-14.189-45.573-5.55-5.752-3.49-12.366-5.355-19.267-5.355-9.945 0-19.295 3.873-26.327 10.905s-10.905 16.382-10.905 26.327 3.873 19.295 10.905 26.327l38.512 38.512c1.953 1.952 4.512 2.929 7.071 2.929s5.119-.977 7.071-2.929l38.513-38.512c14.516-14.516 14.516-38.137 0-52.654zm-14.142 38.512-31.441 31.441-31.44-31.441c-3.255-3.255-5.047-7.582-5.047-12.185s1.792-8.93 5.047-12.185c3.253-3.254 7.581-5.047 12.183-5.047s8.93 1.793 12.185 5.048c3.905 3.904 10.237 3.904 14.143 0 3.254-3.255 7.582-5.048 12.185-5.048s8.93 1.793 12.185 5.048 5.047 7.582 5.047 12.185-1.793 8.929-5.047 12.184z"/><path id="XMLID_1618_" d="m409.633 48.569c2.63 0 5.21-1.06 7.07-2.93 1.86-1.85 2.93-4.43 2.93-7.07 0-2.63-1.07-5.21-2.93-7.069-1.86-1.86-4.44-2.931-7.07-2.931s-5.21 1.07-7.07 2.931c-1.86 1.859-2.93 4.439-2.93 7.069 0 2.641 1.07 5.211 2.93 7.07 1.86 1.871 4.43 2.93 7.07 2.93z"/></g></g></g></svg>